<svg xmlns="http://www.w3.org/2000/svg" width="88" height="81" viewBox="0 0 88 81" fill="none"><path d="M20.5388 38.5228C20.6806 39.2667 26.5615 42.2072 31.1316 43.766C31.8047 44.014 27.1637 47.2024 19.724 46.175C14.7996 45.4665 12.674 39.0188 8.84788 36.468C7.9622 35.8657 17.6338 34.0944 21.6017 34.4132C28.5808 34.9801 32.7966 42.7386 31.5213 41.9592C26.0655 38.6999 20.468 38.0976 20.5388 38.5228Z" fill="#5C3B6F"></path><path d="M34.3201 25.9457C38.4651 29.6656 38.2171 32.9249 40.0947 36.255C40.449 36.8927 34.8869 36.8573 29.3249 31.7912C25.6404 28.461 27.5181 21.9425 25.8176 17.6558C25.4279 16.6638 34.4264 20.6671 37.5085 23.1824C42.9289 27.5754 42.0432 36.3613 41.4409 35.0151C38.7485 29.205 37.7919 26.9731 34.3201 25.9457Z" fill="#D84C73"></path><path d="M71.2353 28.6386C70.5621 28.2489 64.2207 30.7996 59.8631 33.2795C59.19 33.6692 59.934 27.8237 65.8503 22.7222C69.7827 19.3567 76.3013 22.12 80.9423 20.9155C82.0051 20.632 76.7265 29.418 73.7506 32.2876C68.5074 37.3537 59.5443 35.2989 61.0322 34.8029C67.3028 32.819 71.625 28.8866 71.2353 28.6386Z" fill="#A056D6"></path><path d="M70.5621 51.7725C70.2433 51.1348 64.1498 50.0365 59.6151 49.8594C58.942 49.824 62.3076 45.7144 69.2868 44.6516C73.9277 43.9785 77.5767 49.2217 81.6863 50.5325C82.5365 50.8159 74.5654 54.9609 70.7038 55.7757C64.2561 57.122 58.3752 51.2411 59.7569 51.5953C65.5315 53.0833 70.7393 52.1267 70.5621 51.7725Z" fill="#35234B"></path><path d="M79.1709 40.5421C78.9583 40.0461 74.4591 38.877 71.0581 38.4873C70.5267 38.4164 73.3254 35.5114 78.6395 35.1217C82.1468 34.8737 84.5913 39.0187 87.638 40.2587C88.3465 40.5421 81.8988 43.1991 79.0646 43.5534C74.1403 44.1911 70.0661 39.4438 71.0581 39.7627C75.3094 41.2506 79.2772 40.8255 79.1709 40.5421Z" fill="#5C3B6F"></path><path d="M64.079 14.5739C63.4059 14.5384 59.7215 18.9668 57.4541 22.5804C57.0998 23.1118 55.3285 18.5063 57.7021 12.342C59.2609 8.26784 65.2127 7.73644 68.1885 5.00855C68.7908 4.44171 68.5074 12.7671 67.3737 16.3452C65.4961 22.1907 58.021 24.2455 58.9066 23.289C62.8036 19.2503 64.4333 14.6093 64.079 14.5739Z" fill="#D84C73"></path><path d="M38.465 9.75585C38.0399 10.181 38.8547 15.3533 39.9884 19.0023C40.1655 19.5692 35.9497 18.0104 33.1864 12.7317C31.3442 9.22444 34.4972 4.8669 34.4263 1.2179C34.3909 0.367651 39.9884 5.78801 41.6535 8.5159C44.5231 13.2631 41.4409 19.5692 41.3701 18.4001C40.9095 13.4048 38.713 9.50786 38.465 9.75585Z" fill="#FF8484"></path><path d="M49.2349 8.97636C49.6955 9.33063 49.5184 14.503 48.8452 18.2583C48.739 18.8251 52.7068 16.8058 54.797 11.2791C56.1787 7.63013 52.5651 3.73314 52.2108 0.119574C52.1045 -0.978668 47.0385 5.78792 46.0111 8.16154C43.7792 13.1922 47.5344 19.0022 47.499 17.8332C47.2864 12.8379 48.9869 8.7638 49.2349 8.97636Z" fill="#A056D6"></path><path d="M26.0302 9.64982C25.8885 9.96867 27.4473 12.5903 28.829 14.3262C29.0416 14.5742 26.4199 14.6805 23.7983 12.4131C22.0624 10.9252 22.8418 7.87847 21.9916 5.92997C21.7436 5.32771 26.2428 7.41791 27.4473 8.33902C29.9981 10.2875 29.7147 14.3616 29.3958 13.7594C28.1204 11.1023 26.1011 9.47269 26.0302 9.64982Z" fill="#A056D6"></path><path d="M17.1379 22.5097C20.1137 24.4228 20.1492 27.1507 22.5936 29.914C12.1781 33.4213 12.674 19.4275 10.5484 16.6642C10.4067 16.4517 10.6193 16.4517 10.7255 16.4517C13.7723 17.3019 17.6693 18.223 20.1492 19.9235C24.5776 22.9348 24.117 29.8431 23.5502 28.8512C21.1411 24.6353 19.0864 22.5097 17.1379 22.5097Z" fill="#35234B"></path><path d="M6.22636 47.4502C6.54521 47.1313 10.2651 47.6982 12.8867 48.4421C13.2764 48.5484 12.1427 45.5371 8.31657 43.5886C5.80124 42.3132 2.68365 44.616 0.0620391 44.5806C-0.540223 44.5806 3.39219 48.5484 5.37611 49.7175C8.84797 51.7369 13.3472 49.4695 12.497 49.3987C8.84797 49.1861 6.04923 47.6273 6.22636 47.4502Z" fill="#A056D6"></path><path d="M6.54521 27.3632C6.54521 27.7529 9.20225 29.8076 11.3279 31.0476C11.6467 31.2247 8.98968 32.3584 5.37611 31.083C2.96707 30.2328 2.54194 26.7963 0.912293 25.1313C0.522595 24.7416 5.55325 24.8478 7.53717 25.4147C10.9736 26.4066 12.3198 30.7287 11.753 30.1973C9.30853 28.0009 6.54521 27.1506 6.54521 27.3632Z" fill="#D84C73"></path><path d="M51.6441 26.4419C51.1835 26.5127 49.0933 30.1617 47.9242 32.9959C47.7471 33.421 45.8694 30.3388 46.7905 25.627C47.3928 22.5094 51.5732 21.3758 53.3446 19.0376C53.876 18.329 54.4782 25.1665 54.1948 27.2567C53.5926 31.6851 48.491 34.0941 49.0225 33.3147C51.3606 29.9491 51.9275 26.4064 51.6441 26.4419Z" fill="#FF8484"></path><path d="M17.4213 56.0947C21.1766 54.9256 23.5502 56.2364 27.27 55.4924C27.8723 55.3862 26.3489 58.5037 20.7869 61.6568C17.1379 63.747 12.3552 60.5231 8.45822 60.7711C7.53712 60.8419 13.1346 54.6422 15.9688 52.8C20.9286 49.5761 27.9786 52.3394 26.7386 52.4811C21.4246 53.0834 18.7321 54.5005 17.4213 56.0947Z" fill="#D84C73"></path><path d="M45.1607 50.816C37.3667 50.816 37.3667 39.0188 45.1607 39.0188C52.9546 39.0188 52.9546 50.816 45.1607 50.816Z" fill="#D84C73"></path><path d="M56.5328 32.8896C57.7728 45.6789 52.7067 52.658 47.7115 53.1894C40.0238 54.0042 36.0559 48.3359 25.0381 54.3231C33.1155 52.162 37.4376 55.7047 38.3233 58.7869C39.8112 63.9593 36.4811 71.647 39.4215 79.9723C43.3185 58.6098 64.5039 63.9593 56.5328 32.8896Z" fill="#35234B"></path><path d="M40.0239 80.9647C42.2204 67.2189 55.6473 64.6682 56.6747 55.9885C55.6473 72.6393 50.0498 66.7584 40.0239 80.9647Z" fill="#D84C73"></path><path d="M54.1237 68.2462C50.4747 74.4813 44.8772 74.3396 41.5116 80.9999C46.684 75.1544 52.742 78.272 54.1237 68.2462Z" fill="#D84C73"></path></svg>