<svg xmlns="http://www.w3.org/2000/svg" width="283" height="81" viewBox="0 0 283 81" fill="none"><path d="M20.5388 38.5228C20.6806 39.2667 26.5615 42.2072 31.1316 43.766C31.8047 44.014 27.1637 47.2024 19.724 46.175C14.7996 45.4665 12.674 39.0188 8.84788 36.468C7.9622 35.8657 17.6338 34.0944 21.6017 34.4132C28.5808 34.9801 32.7966 42.7386 31.5213 41.9592C26.0655 38.6999 20.468 38.0976 20.5388 38.5228Z" fill="#5C3B6F"></path><path d="M34.3201 25.9457C38.4651 29.6656 38.2171 32.9249 40.0947 36.255C40.449 36.8927 34.8869 36.8573 29.3249 31.7912C25.6404 28.461 27.5181 21.9425 25.8176 17.6558C25.4279 16.6638 34.4264 20.6671 37.5085 23.1824C42.9289 27.5754 42.0432 36.3613 41.4409 35.0151C38.7485 29.205 37.7919 26.9731 34.3201 25.9457Z" fill="#D84C73"></path><path d="M71.2353 28.6386C70.5621 28.2489 64.2207 30.7996 59.8631 33.2795C59.19 33.6692 59.934 27.8237 65.8503 22.7222C69.7827 19.3567 76.3013 22.12 80.9423 20.9155C82.0051 20.632 76.7265 29.418 73.7506 32.2876C68.5074 37.3537 59.5443 35.2989 61.0322 34.8029C67.3028 32.819 71.625 28.8866 71.2353 28.6386Z" fill="#A056D6"></path><path d="M70.5621 51.7725C70.2433 51.1348 64.1498 50.0365 59.6151 49.8594C58.942 49.824 62.3076 45.7144 69.2868 44.6516C73.9277 43.9785 77.5767 49.2217 81.6863 50.5325C82.5365 50.8159 74.5654 54.9609 70.7038 55.7757C64.2561 57.122 58.3752 51.2411 59.7569 51.5953C65.5315 53.0833 70.7393 52.1267 70.5621 51.7725Z" fill="#35234B"></path><path d="M79.1709 40.5421C78.9583 40.0461 74.4591 38.877 71.0581 38.4873C70.5267 38.4164 73.3254 35.5114 78.6395 35.1217C82.1468 34.8737 84.5913 39.0187 87.638 40.2587C88.3465 40.5421 81.8988 43.1991 79.0646 43.5534C74.1403 44.1911 70.0661 39.4438 71.0581 39.7627C75.3094 41.2506 79.2772 40.8255 79.1709 40.5421Z" fill="#5C3B6F"></path><path d="M64.079 14.5739C63.4059 14.5384 59.7215 18.9668 57.4541 22.5804C57.0998 23.1118 55.3285 18.5063 57.7021 12.342C59.2609 8.26784 65.2127 7.73644 68.1885 5.00855C68.7908 4.44171 68.5074 12.7671 67.3737 16.3452C65.4961 22.1907 58.021 24.2455 58.9066 23.289C62.8036 19.2503 64.4333 14.6093 64.079 14.5739Z" fill="#D84C73"></path><path d="M38.465 9.75585C38.0399 10.181 38.8547 15.3533 39.9884 19.0023C40.1655 19.5692 35.9497 18.0104 33.1864 12.7317C31.3442 9.22444 34.4972 4.8669 34.4263 1.2179C34.3909 0.367651 39.9884 5.788 41.6535 8.5159C44.5231 13.2631 41.4409 19.5692 41.3701 18.4001C40.9095 13.4048 38.713 9.50786 38.465 9.75585Z" fill="#FF8484"></path><path d="M49.2349 8.97636C49.6955 9.33063 49.5184 14.503 48.8452 18.2583C48.739 18.8251 52.7068 16.8058 54.797 11.2791C56.1787 7.63013 52.5651 3.73314 52.2108 0.119574C52.1045 -0.978668 47.0385 5.78792 46.0111 8.16154C43.7792 13.1922 47.5344 19.0022 47.499 17.8332C47.2864 12.8379 48.9869 8.7638 49.2349 8.97636Z" fill="#A056D6"></path><path d="M26.0302 9.64982C25.8885 9.96867 27.4473 12.5903 28.829 14.3262C29.0416 14.5742 26.4199 14.6805 23.7983 12.4131C22.0624 10.9252 22.8418 7.87847 21.9916 5.92997C21.7436 5.32771 26.2428 7.41791 27.4473 8.33902C29.9981 10.2875 29.7147 14.3616 29.3958 13.7594C28.1204 11.1023 26.1011 9.47269 26.0302 9.64982Z" fill="#A056D6"></path><path d="M17.1379 22.5097C20.1137 24.4228 20.1492 27.1507 22.5936 29.914C12.1781 33.4213 12.674 19.4275 10.5484 16.6642C10.4067 16.4517 10.6193 16.4517 10.7255 16.4517C13.7723 17.3019 17.6693 18.223 20.1492 19.9235C24.5776 22.9348 24.117 29.8431 23.5502 28.8512C21.1411 24.6353 19.0864 22.5097 17.1379 22.5097Z" fill="#35234B"></path><path d="M6.22636 47.4502C6.54521 47.1313 10.2651 47.6982 12.8867 48.4421C13.2764 48.5484 12.1427 45.5371 8.31657 43.5886C5.80124 42.3132 2.68365 44.616 0.0620391 44.5806C-0.540223 44.5806 3.39219 48.5484 5.37611 49.7175C8.84797 51.7369 13.3472 49.4695 12.497 49.3987C8.84797 49.1861 6.04923 47.6273 6.22636 47.4502Z" fill="#A056D6"></path><path d="M6.54521 27.3632C6.54521 27.7529 9.20225 29.8076 11.3279 31.0476C11.6467 31.2247 8.98968 32.3584 5.37611 31.083C2.96707 30.2328 2.54194 26.7963 0.912293 25.1313C0.522595 24.7416 5.55325 24.8478 7.53717 25.4147C10.9736 26.4066 12.3198 30.7287 11.753 30.1973C9.30853 28.0009 6.54521 27.1506 6.54521 27.3632Z" fill="#D84C73"></path><path d="M51.6441 26.4419C51.1835 26.5127 49.0933 30.1617 47.9242 32.9959C47.7471 33.421 45.8694 30.3388 46.7905 25.627C47.3928 22.5094 51.5732 21.3758 53.3446 19.0376C53.876 18.329 54.4782 25.1665 54.1948 27.2567C53.5926 31.6851 48.491 34.0941 49.0225 33.3147C51.3606 29.9491 51.9275 26.4064 51.6441 26.4419Z" fill="#FF8484"></path><path d="M17.4213 56.0947C21.1766 54.9256 23.5502 56.2364 27.27 55.4924C27.8723 55.3862 26.3489 58.5037 20.7869 61.6568C17.1379 63.747 12.3552 60.5231 8.45822 60.7711C7.53712 60.8419 13.1346 54.6422 15.9688 52.8C20.9286 49.5761 27.9786 52.3394 26.7386 52.4811C21.4246 53.0834 18.7321 54.5005 17.4213 56.0947Z" fill="#D84C73"></path><path d="M45.1607 50.816C37.3667 50.816 37.3667 39.0188 45.1607 39.0188C52.9546 39.0188 52.9546 50.816 45.1607 50.816Z" fill="#D84C73"></path><path d="M56.5328 32.8896C57.7728 45.6789 52.7067 52.658 47.7115 53.1894C40.0238 54.0042 36.0559 48.3359 25.0381 54.3231C33.1155 52.162 37.4376 55.7047 38.3233 58.7869C39.8112 63.9593 36.4811 71.647 39.4215 79.9723C43.3185 58.6098 64.5039 63.9593 56.5328 32.8896Z" fill="#35234B"></path><path d="M40.0239 80.9647C42.2204 67.2189 55.6473 64.6682 56.6747 55.9885C55.6473 72.6393 50.0498 66.7584 40.0239 80.9647Z" fill="#D84C73"></path><path d="M54.1237 68.2462C50.4747 74.4813 44.8772 74.3396 41.5116 80.9999C46.684 75.1544 52.742 78.272 54.1237 68.2462Z" fill="#D84C73"></path><path d="M113.774 32.636C114.219 32.7843 114.59 33.1551 114.812 33.5999C115.035 34.0448 115.035 34.5638 114.886 35.0087L108.288 53.7674C108.288 53.8416 108.213 53.9157 108.213 53.9899C108.213 53.9899 108.213 53.9899 108.213 54.064C108.139 54.1382 108.139 54.2123 108.065 54.2865C108.065 54.2865 108.065 54.2865 108.065 54.3606C107.991 54.4347 107.991 54.4348 107.917 54.5089C107.917 54.5089 107.843 54.583 107.917 54.5089C107.843 54.583 107.769 54.583 107.694 54.6572C107.62 54.7313 107.546 54.7313 107.472 54.7313C107.398 54.7313 107.324 54.8055 107.249 54.8055C107.175 54.8055 107.175 54.8055 107.249 54.8055C107.175 54.8055 107.101 54.8055 107.027 54.8796C106.953 54.8796 106.953 54.8796 106.953 54.8796C106.879 54.8796 106.73 54.8796 106.656 54.8796C106.582 54.8796 106.434 54.8796 106.36 54.8796C106.36 54.8796 106.36 54.8796 106.286 54.8796C106.211 54.8796 106.137 54.8796 106.063 54.8055C105.989 54.8055 105.915 54.7313 105.841 54.7313H105.767C105.692 54.7313 105.618 54.6572 105.544 54.6572C105.47 54.583 105.396 54.583 105.322 54.5089C105.322 54.5089 105.322 54.5089 105.248 54.5089C105.173 54.4348 105.173 54.4347 105.099 54.3606C105.099 54.3606 105.099 54.3606 105.099 54.2865C105.025 54.2123 105.025 54.1382 104.951 54.064C104.951 54.064 104.951 54.064 104.951 53.9899C104.877 53.9157 104.877 53.8416 104.877 53.7674L98.2779 35.0087C98.1296 34.5638 98.1296 34.0448 98.3521 33.5999C98.5745 33.1551 98.9452 32.8585 99.3901 32.636C99.835 32.4878 100.354 32.4878 100.799 32.7102C101.244 32.9326 101.54 33.3033 101.763 33.7482L106.582 47.5392L111.402 33.7482C111.55 33.3033 111.846 32.9326 112.366 32.7102C112.81 32.4878 113.033 32.4136 113.033 32.4136C113.033 32.4136 113.255 32.4136 113.774 32.636Z" fill="#35234B"></path><path d="M118.371 54.8054C117.926 54.583 117.556 54.2864 117.333 53.7674C117.111 53.3225 117.111 52.8035 117.333 52.3586L119.335 47.5392L125.118 33.5999C125.118 33.5258 125.192 33.5258 125.192 33.4516V33.3775C125.192 33.3033 125.267 33.3033 125.267 33.3033C125.267 33.3033 125.267 33.3033 125.341 33.2292L125.415 33.155C125.415 33.155 125.415 33.155 125.489 33.0809C125.563 33.0067 125.563 33.0067 125.563 33.0067C125.563 33.0067 125.563 33.0067 125.637 32.9326C125.711 32.8585 125.712 32.8585 125.712 32.8585C125.712 32.8585 125.711 32.8584 125.786 32.7843C125.86 32.7843 125.86 32.7102 125.86 32.7102L125.934 32.636C126.008 32.636 126.008 32.5619 126.008 32.5619C126.008 32.5619 126.082 32.5619 126.082 32.4877C126.156 32.4877 126.156 32.4136 126.156 32.4877C126.156 32.5619 126.156 32.4877 126.231 32.4877C126.305 32.4877 126.305 32.4877 126.305 32.4877H126.379H126.453H126.527H126.601H126.675C126.75 32.4877 126.75 32.4877 126.75 32.4877H126.824H126.898H126.972H127.046H127.12C127.194 32.4877 127.194 32.4877 127.194 32.4877C127.343 32.4877 127.417 32.5619 127.565 32.636C127.565 32.636 127.565 32.636 127.639 32.636C127.713 32.636 127.713 32.7102 127.713 32.7102L127.788 32.7843C127.862 32.7843 127.862 32.8585 127.862 32.8585C127.862 32.8585 127.862 32.8585 127.936 32.9326L128.01 33.0067C128.01 33.0067 128.01 33.0067 128.084 33.0809C128.158 33.155 128.158 33.155 128.158 33.155L128.232 33.2292C128.307 33.3033 128.307 33.3033 128.307 33.3033C128.307 33.3033 128.307 33.3033 128.381 33.3775C128.381 33.4516 128.455 33.4516 128.455 33.4516C128.455 33.5258 128.529 33.5258 128.529 33.5999L134.312 47.5392L136.314 52.3586C136.537 52.8035 136.537 53.3225 136.314 53.7674C136.092 54.2123 135.795 54.583 135.276 54.8054C135.054 54.8796 134.831 54.9537 134.535 54.9537C133.719 54.9537 133.126 54.583 132.829 53.8415L131.347 50.2084H122.227L120.744 53.8415C120.447 54.583 119.854 54.9537 119.038 54.9537C118.816 54.9537 118.668 54.9537 118.668 54.9537C118.668 54.9537 118.594 54.8796 118.371 54.8054ZM129.864 46.5012L126.824 39.2349L123.784 46.5012H129.864Z" fill="#35234B"></path><path d="M141.653 32.4136C142.172 32.4136 142.617 32.5619 142.988 32.9327C143.358 33.3034 143.507 33.7482 143.507 34.2673V51.2465H151.811C152.33 51.2465 152.775 51.3948 153.145 51.7655C153.516 52.1363 153.664 52.5811 153.664 53.1002C153.664 53.6192 153.516 54.0641 153.145 54.4348C152.775 54.8055 152.33 54.9538 151.811 54.9538H141.653C141.134 54.9538 140.689 54.8055 140.318 54.4348C139.948 54.0641 139.799 53.6192 139.799 53.1002V34.2673C139.799 33.7482 139.948 33.3034 140.318 32.9327C140.763 32.6361 141.134 32.4136 141.653 32.4136Z" fill="#35234B"></path><path d="M170.57 32.4136C171.089 32.4136 171.533 32.5619 171.83 32.9327C172.127 33.3034 172.349 33.7483 172.349 34.1931V46.872C172.349 49.0963 171.533 51.0241 169.976 52.5812C168.419 54.1382 166.492 54.9538 164.267 54.9538C162.043 54.9538 160.115 54.1382 158.558 52.5812C157.001 51.0241 156.185 49.0963 156.185 46.872V34.1931C156.185 33.6741 156.334 33.2292 156.704 32.9327C157.075 32.5619 157.52 32.4136 157.965 32.4136C158.41 32.4136 158.929 32.5619 159.225 32.9327C159.596 33.3034 159.744 33.7483 159.744 34.1931V46.872C159.744 48.0583 160.189 49.0963 161.005 49.9861C161.895 50.8758 162.933 51.2465 164.119 51.2465C165.305 51.2465 166.343 50.8017 167.233 49.9861C168.123 49.0963 168.494 48.0583 168.494 46.872V34.1931C168.494 33.6741 168.642 33.2292 169.013 32.9327C169.68 32.5619 170.051 32.4136 170.57 32.4136Z" fill="#35234B"></path><path d="M190.589 51.2465C191.108 51.2465 191.553 51.3948 191.923 51.7655C192.294 52.1363 192.442 52.5811 192.442 53.1002C192.442 53.6192 192.294 54.0641 191.923 54.4348C191.553 54.8055 191.108 54.9538 190.589 54.9538H179.245C178.726 54.9538 178.281 54.8055 177.91 54.4348C177.539 54.0641 177.391 53.6192 177.391 53.1002V34.2673C177.391 33.7482 177.539 33.3034 177.91 32.9327C178.281 32.5619 178.726 32.4136 179.245 32.4136H190.589C191.108 32.4136 191.553 32.5619 191.923 32.9327C192.294 33.3034 192.442 33.7482 192.442 34.2673C192.442 34.7863 192.294 35.2312 191.923 35.6019C191.553 35.9726 191.108 36.1209 190.589 36.1209H181.098V41.8301H187.92C188.439 41.8301 188.884 41.9784 189.254 42.3491C189.625 42.7198 189.773 43.1647 189.773 43.6837C189.773 44.2027 189.625 44.6476 189.254 45.0183C188.884 45.3891 188.439 45.5374 187.92 45.5374H181.098V51.2465H190.589Z" fill="#35234B"></path><path d="M218.097 54.9542C214.983 54.9542 212.314 53.842 210.163 51.6177C207.939 49.3933 206.827 46.7982 206.827 43.6841C206.827 40.57 207.939 37.9008 210.163 35.6764C212.388 33.4521 214.983 32.3399 218.097 32.3399C220.692 32.3399 222.99 33.1555 224.992 34.7126C225.215 34.8608 225.289 35.0833 225.363 35.3057C225.363 35.6023 225.363 35.8247 225.141 35.973C224.992 36.1955 224.77 36.2696 224.547 36.3437C224.251 36.4179 224.028 36.3437 223.88 36.1213C222.175 34.8608 220.247 34.1935 218.171 34.1935C215.576 34.1935 213.352 35.0833 211.572 36.9369C209.718 38.7905 208.829 41.0149 208.829 43.61C208.829 46.2051 209.718 48.4294 211.572 50.2089C213.426 52.0625 215.65 52.9523 218.171 52.9523C220.618 52.9523 222.694 52.1367 224.473 50.5055C224.696 50.3572 224.918 50.2089 225.141 50.2831C225.437 50.2831 225.586 50.4313 225.808 50.5796C225.956 50.8021 226.105 51.0245 226.03 51.2469C226.03 51.5435 225.882 51.6918 225.734 51.9143C223.509 53.9903 220.989 54.9542 218.097 54.9542Z" fill="#1A1B22"></path><path d="M228.626 54.8804C228.403 54.8062 228.181 54.5838 228.107 54.3614C228.032 54.1389 228.032 53.9165 228.107 53.6199L230.257 48.3556L236.633 33.0075C236.633 32.9334 236.707 32.9334 236.707 32.8592L236.782 32.7851C236.782 32.7109 236.856 32.711 236.856 32.711C236.856 32.711 236.856 32.711 236.93 32.6368C237.004 32.5627 237.004 32.5627 237.004 32.5627C237.078 32.4885 237.226 32.4144 237.301 32.4144H237.375C237.449 32.4144 237.449 32.4144 237.449 32.4144H237.523C237.597 32.4144 237.597 32.4144 237.597 32.4144C237.745 32.4144 237.82 32.4885 237.968 32.5627L238.042 32.6368C238.116 32.711 238.116 32.711 238.116 32.711C238.116 32.711 238.116 32.7109 238.19 32.7851C238.264 32.8592 238.264 32.8592 238.264 32.8592C238.264 32.9334 238.339 33.0075 238.339 33.0075L244.715 48.3556L246.865 53.6199C246.939 53.8423 246.939 54.0648 246.865 54.3614C246.791 54.5838 246.569 54.8062 246.346 54.8804C246.198 54.9545 246.124 54.9545 245.976 54.9545C245.531 54.9545 245.234 54.7321 245.086 54.3614L243.158 49.6902H231.665L229.738 54.3614C229.589 54.7321 229.293 54.9545 228.848 54.9545C228.7 54.9545 228.626 54.9545 228.626 54.9545C228.626 54.9545 228.774 54.9545 228.626 54.8804ZM242.565 47.8366L237.597 35.8992L232.629 47.8366H242.565Z" fill="#1A1B22"></path><path d="M258.209 32.4882C259.989 32.4882 261.546 33.0813 262.881 34.2676C264.141 35.454 264.808 36.8627 264.808 38.5681C264.808 40.051 264.289 41.3856 263.251 42.4978C262.213 43.6099 260.953 44.2773 259.396 44.5738L263.845 53.6937C263.993 53.9161 263.993 54.1386 263.919 54.4352C263.845 54.6576 263.696 54.88 263.474 54.9542C263.325 55.0283 263.177 55.0283 263.029 55.0283C262.658 55.0283 262.362 54.88 262.213 54.5093L257.394 44.648H252.13V53.9161C252.13 54.1386 252.055 54.361 251.833 54.5834C251.685 54.7317 251.462 54.88 251.166 54.88C250.943 54.88 250.721 54.8059 250.498 54.5834C250.35 54.361 250.202 54.1386 250.202 53.9161V33.452C250.202 33.1555 250.276 32.933 250.498 32.7847C250.721 32.6364 250.943 32.4882 251.166 32.4882H258.209ZM262.955 38.4939C262.955 37.3076 262.51 36.3437 261.546 35.5281C260.656 34.7125 259.544 34.2676 258.209 34.2676H252.055V42.6461H258.358C259.618 42.6461 260.73 42.2012 261.62 41.3856C262.51 40.6441 262.955 39.6803 262.955 38.4939Z" fill="#1A1B22"></path><path d="M269.479 54.9543C269.183 54.9543 268.96 54.8801 268.812 54.6577C268.589 54.5094 268.515 54.287 268.515 53.9904V33.3039C268.515 33.0073 268.589 32.7848 268.812 32.6365C269.034 32.4141 269.257 32.34 269.479 32.34H281.936C282.232 32.34 282.455 32.4141 282.603 32.6365C282.825 32.859 282.899 33.0814 282.899 33.3039C282.899 33.6004 282.825 33.8229 282.603 33.9712C282.455 34.1194 282.232 34.2677 281.936 34.2677H270.369V42.7203H279.044C279.34 42.7203 279.489 42.7944 279.711 43.0169C279.934 43.1652 280.008 43.3876 280.008 43.6842C280.008 43.9808 279.934 44.2032 279.711 44.3515C279.563 44.5739 279.34 44.6481 279.044 44.6481H270.443V53.1006H282.01C282.306 53.1006 282.529 53.1748 282.677 53.3972C282.899 53.5455 282.974 53.7679 282.974 54.0645C282.974 54.3611 282.899 54.5835 282.677 54.7318C282.529 54.9543 282.306 55.0284 282.01 55.0284H269.479V54.9543Z" fill="#1A1B22"></path></svg>